<svg xmlns="http://www.w3.org/2000/svg" xmlns:xlink="http://www.w3.org/1999/xlink" version="1.1" width="60" height="60" viewBox="0 0 350 350" xml:space="preserve">
<g id="icon" style="stroke: none; stroke-width: 1; stroke-dasharray: none; stroke-linecap: butt; stroke-linejoin: miter; stroke-miterlimit: 10; fill: none; fill-rule: nonzero; opacity: 1;" transform="translate(-1.9444444444444287 -1.9444444444444287) scale(3.89 3.89)" >
	<circle cx="45" cy="45" r="45" style="stroke: none; stroke-width: 1; stroke-dasharray: none; stroke-linecap: butt; stroke-linejoin: miter; stroke-miterlimit: 10; fill: rgb(213,45,52); fill-rule: nonzero; opacity: 1;" transform="  matrix(1 0 0 1 0 0) "/>
	<path d="M 41.846 79.5 c -1.657 0 -3 -1.343 -3 -3 V 26.299 L 22.327 40.351 c -1.263 1.074 -3.155 0.921 -4.229 -0.341 c -1.073 -1.262 -0.921 -3.155 0.341 -4.229 l 21.462 -18.257 c 0.891 -0.758 2.141 -0.929 3.203 -0.438 c 1.062 0.491 1.741 1.554 1.741 2.723 V 76.5 C 44.846 78.157 43.502 79.5 41.846 79.5 z" style="stroke: none; stroke-width: 1; stroke-dasharray: none; stroke-linecap: butt; stroke-linejoin: miter; stroke-miterlimit: 10; fill: rgb(213,45,52); fill-rule: nonzero; opacity: 1;" transform=" matrix(1 0 0 1 0 0) " stroke-linecap="round" />
	<path d="M 41.846 79.5 c -1.657 0 -3 -1.343 -3 -3 V 19.809 c 0 -1.169 0.68 -2.232 1.741 -2.723 c 1.061 -0.491 2.312 -0.32 3.203 0.438 l 21.462 18.257 c 1.263 1.074 1.415 2.967 0.342 4.229 c -1.075 1.263 -2.967 1.414 -4.229 0.341 l -16.52 -14.052 V 76.5 C 44.846 78.157 43.502 79.5 41.846 79.5 z" style="stroke: none; stroke-width: 1; stroke-dasharray: none; stroke-linecap: butt; stroke-linejoin: miter; stroke-miterlimit: 10; fill: rgb(213,45,52); fill-rule: nonzero; opacity: 1;" transform=" matrix(1 0 0 1 0 0) " stroke-linecap="round" />
	<path d="M 45.154 76.191 c -1.657 0 -3 -1.343 -3 -3 V 22.991 L 25.636 37.043 c -1.262 1.073 -3.155 0.92 -4.229 -0.341 c -1.073 -1.262 -0.921 -3.155 0.341 -4.229 L 43.21 14.215 c 0.892 -0.758 2.142 -0.929 3.203 -0.438 c 1.062 0.491 1.741 1.554 1.741 2.723 v 56.691 C 48.154 74.849 46.812 76.191 45.154 76.191 z" style="stroke: none; stroke-width: 1; stroke-dasharray: none; stroke-linecap: butt; stroke-linejoin: miter; stroke-miterlimit: 10; fill: rgb(255,255,255); fill-rule: nonzero; opacity: 1;" transform=" matrix(1 0 0 1 0 0) " stroke-linecap="round" />
	<path d="M 45.154 76.191 c -1.657 0 -3 -1.343 -3 -3 V 16.5 c 0 -1.169 0.68 -2.232 1.741 -2.723 c 1.061 -0.491 2.313 -0.32 3.202 0.438 l 21.463 18.258 c 1.263 1.074 1.415 2.967 0.342 4.229 c -1.075 1.262 -2.968 1.414 -4.229 0.341 l -16.52 -14.052 v 50.201 C 48.154 74.849 46.812 76.191 45.154 76.191 z" style="stroke: none; stroke-width: 1; stroke-dasharray: none; stroke-linecap: butt; stroke-linejoin: miter; stroke-miterlimit: 10; fill: rgb(255,255,255); fill-rule: nonzero; opacity: 1;" transform=" matrix(1 0 0 1 0 0) " stroke-linecap="round" />
</g>
</svg>